<?xml version="1.0" encoding="UTF-8"?>
<svg version="1.1" xmlns="http://www.w3.org/2000/svg" width="40" height="40">
<path d="M0 0 C3 0.625 3 0.625 4.5625 2.875 C5.036875 3.7825 5.51125 4.69 6 5.625 C7.66270287 6.96327304 9.32916181 8.29689785 11 9.625 C13.24319681 13.01659108 13.2119912 15.8734048 13.125 19.875 C13.10695312 20.95265625 13.08890625 22.0303125 13.0703125 23.140625 C13.04710937 23.96046875 13.02390625 24.7803125 13 25.625 C13.804375 25.91632812 14.60875 26.20765625 15.4375 26.5078125 C18 27.625 18 27.625 19 29.5 C19 32.47228891 18.04582513 33.51346314 16 35.625 C13.51953125 36.015625 13.51953125 36.015625 10.8125 35.875 C9.91144531 35.83890625 9.01039062 35.8028125 8.08203125 35.765625 C7.39496094 35.71921875 6.70789063 35.6728125 6 35.625 C5.01 38.1 5.01 38.1 4 40.625 C-2.48292295 40.9919579 -2.48292295 40.9919579 -4.9375 39.25 C-6 37.625 -6 37.625 -6 35.625 C-6.69867188 35.63660156 -7.39734375 35.64820313 -8.1171875 35.66015625 C-9.02726563 35.66917969 -9.93734375 35.67820313 -10.875 35.6875 C-12.23238281 35.70490234 -12.23238281 35.70490234 -13.6171875 35.72265625 C-16 35.625 -16 35.625 -18 34.625 C-19.01269438 32.17765524 -19.11191513 30.9810936 -18.3125 28.4375 C-16.68370625 26.1882134 -15.64403854 26.15811571 -13 25.625 C-13.05800781 24.75617187 -13.11601562 23.88734375 -13.17578125 22.9921875 C-13.59024992 12.40547351 -13.59024992 12.40547351 -10.625 8.875 C-8 6.625 -8 6.625 -6 5.625 C-5.5875 4.779375 -5.175 3.93375 -4.75 3.0625 C-3 0.625 -3 0.625 0 0 Z M-9 13.625 C-10.72316831 17.07133662 -10.29307486 21.06769937 -10.42578125 24.875 C-11 27.625 -11 27.625 -13.04296875 29 C-13.68878906 29.20625 -14.33460937 29.4125 -15 29.625 C-14.67 30.615 -14.34 31.605 -14 32.625 C-4.76 32.625 4.48 32.625 14 32.625 C14.33 31.635 14.66 30.645 15 29.625 C13.35 29.295 11.7 28.965 10 28.625 C10.04640625 27.75617187 10.0928125 26.88734375 10.140625 25.9921875 C10.63631248 18.60130535 10.63631248 18.60130535 8.125 11.875 C5.23560021 8.81563552 4.47798462 8.67201488 0.1875 8.25 C-4.37404222 8.28317485 -6.18459789 10.04176096 -9 13.625 Z M-2 35.625 C-1.67 36.285 -1.34 36.945 -1 37.625 C-0.01 37.295 0.98 36.965 2 36.625 C0.68 36.295 -0.64 35.965 -2 35.625 Z " fill="#000000" transform="translate(20,-0.625)"/>
<path d="M0 0 C3.83325416 1.45399296 5.28279605 3.3080115 7 7 C7.1875 9.8125 7.1875 9.8125 7 12 C6.01 12 5.02 12 4 12 C2.33333333 8.66666667 0.66666667 5.33333333 -1 2 C-0.67 1.34 -0.34 0.68 0 0 Z " fill="#000000" transform="translate(31,4)"/>
<path d="M0 0 C0.66 0 1.32 0 2 0 C1.33501617 4.38889325 -0.18757677 7.9811485 -2 12 C-2.99 12 -3.98 12 -5 12 C-4.58894145 6.75900345 -3.75960806 3.75960806 0 0 Z " fill="#000000" transform="translate(7,4)"/>
</svg>
