<?xml version="1.0" encoding="UTF-8"?>
<svg version="1.1" xmlns="http://www.w3.org/2000/svg" width="120" height="164">
<path d="M0 0 C39.6 0 79.2 0 120 0 C120 4.40945964 119.99582059 7.90024502 119.31665039 12.10668945 C119.08946823 13.53993561 119.08946823 13.53993561 118.85769653 15.00213623 C118.60522659 16.54215302 118.60522659 16.54215302 118.34765625 18.11328125 C118.17209198 19.21254944 117.99652771 20.31181763 117.81564331 21.44439697 C117.23604844 25.06788349 116.64916509 28.69015212 116.0625 32.3125 C115.45083336 36.12757638 114.84122129 39.94297742 114.23176575 43.75840759 C113.80818911 46.40975882 113.38410804 49.06102394 112.95927429 51.71217346 C110.56660428 66.6541948 108.25090221 81.60803644 105.9375 96.5625 C105.53984436 99.12997185 105.14214054 101.69743624 104.74438477 104.26489258 C103.82861322 110.17644466 102.91432595 116.08822348 102 122 C93.42 122 84.84 122 76 122 C75.71147791 126.80113074 75.71147791 126.80113074 75.43188477 131.6027832 C75.24164809 134.60594873 74.95599652 137.13201045 74 140 C77.3 140 80.6 140 84 140 C81.1108917 145.7782166 76.70165011 149.74745038 72.1875 154.3125 C70.83301758 155.72885742 70.83301758 155.72885742 69.45117188 157.17382812 C68.57396484 158.06134766 67.69675781 158.94886719 66.79296875 159.86328125 C65.9939917 160.68094971 65.19501465 161.49861816 64.37182617 162.34106445 C62 164 62 164 59.51806641 164.04736328 C56.26107164 162.69265051 54.40009833 160.88493174 51.91796875 158.37890625 C50.98662109 157.44369141 50.05527344 156.50847656 49.09570312 155.54492188 C48.61883057 155.05564209 48.14195801 154.5663623 47.65063477 154.06225586 C46.18539978 152.56034721 44.70462213 151.07522524 43.22070312 149.59179688 C36 142.28052047 36 142.28052047 36 140 C39.3 140 42.6 140 46 140 C45.34 134.39 44.68 128.78 44 123 C35.75 122.67 27.5 122.34 19 122 C14.43222149 96.50268971 10.17107473 70.96578886 6.10961914 45.3828125 C5.92698013 44.23440887 5.74434113 43.08600525 5.5561676 41.90280151 C5.19990355 39.66263728 4.84444605 37.42234461 4.48985291 35.18191528 C3.72879024 30.40605457 2.94938221 25.6376579 2.06835938 20.88232422 C1.92654236 20.11468246 1.78472534 19.34704071 1.63861084 18.55613708 C1.26967976 16.59044967 0.88888242 14.62699885 0.50683594 12.66381836 C0 9 0 9 0 0 Z M6 6 C7.15745776 13.52347547 8.25755153 20.65682429 10 28 C15.42736002 28.28121036 19.70164076 27.31053078 24.75 25.5 C38.80886793 20.92493253 48.2749295 24.00291907 61.77099609 29.24389648 C74.91382597 33.70209409 87.42476269 30.37836459 100 26 C100.99 25.505 100.99 25.505 102 25 C104.97 24.67 107.94 24.34 111 24 C111.99 18.06 112.98 12.12 114 6 C78.36 6 42.72 6 6 6 Z M59 47 C56.81925755 49.92417737 55.02254406 53.09801523 53.12402344 56.2109375 C51.9108216 58.14194164 50.63753176 60.0229928 49.3515625 61.90625 C42.0976086 72.48749671 42.0976086 72.48749671 41 85 C42.16655279 90.14655642 44.94793517 93.68467423 49 97 C53.92754647 99.69620467 58.4237534 100.92594501 64 100 C70.8615426 97.89398197 74.73394723 95.07889498 78.25 88.75 C80.58702597 80.18090479 78.42764763 74.43376793 74.28125 66.86328125 C71.7640814 62.49799293 69.01503292 58.29441295 66.1875 54.125 C65.70756592 53.41657959 65.22763184 52.70815918 64.7331543 51.97827148 C63.5446432 50.27838259 62.27884266 48.63301633 61 47 C60.34 47 59.68 47 59 47 Z " fill="#FEFEFE" transform="translate(0,0)"/>
<path d="" fill="#58117B" transform="translate(0,0)"/>
<path d="" fill="#58117B" transform="translate(0,0)"/>
<path d="" fill="#58117B" transform="translate(0,0)"/>
<path d="" fill="#58117B" transform="translate(0,0)"/>
<path d="" fill="#58117B" transform="translate(0,0)"/>
<path d="" fill="#581272" transform="translate(0,0)"/>
<path d="" fill="#55116E" transform="translate(0,0)"/>
<path d="" fill="#5D0C6E" transform="translate(0,0)"/>
<path d="" fill="#5D0C6E" transform="translate(0,0)"/>
<path d="" fill="#581272" transform="translate(0,0)"/>
<path d="" fill="#55116E" transform="translate(0,0)"/>
<path d="" fill="#5D0C6E" transform="translate(0,0)"/>
<path d="" fill="#5D0C6E" transform="translate(0,0)"/>
<path d="" fill="#581272" transform="translate(0,0)"/>
<path d="" fill="#55116E" transform="translate(0,0)"/>
<path d="" fill="#5D0C6E" transform="translate(0,0)"/>
<path d="" fill="#5D0C6E" transform="translate(0,0)"/>
<path d="" fill="#581272" transform="translate(0,0)"/>
<path d="" fill="#55116E" transform="translate(0,0)"/>
<path d="" fill="#5D0C6E" transform="translate(0,0)"/>
<path d="" fill="#5D0C6E" transform="translate(0,0)"/>
<path d="" fill="#581272" transform="translate(0,0)"/>
<path d="" fill="#55116E" transform="translate(0,0)"/>
<path d="" fill="#5D0C6E" transform="translate(0,0)"/>
</svg>
